<?xml version="1.0" standalone="no"?>
<!DOCTYPE svg PUBLIC "-//W3C//DTD SVG 20010904//EN"
 "http://www.w3.org/TR/2001/REC-SVG-20010904/DTD/svg10.dtd">
<svg version="1.0" xmlns="http://www.w3.org/2000/svg"
 width="512.000000pt" height="512.000000pt" viewBox="0 0 512.000000 512.000000"
 preserveAspectRatio="xMidYMid meet">

<g transform="translate(0.000000,512.000000) scale(0.100000,-0.100000)"
fill="#000000" stroke="none">
<path d="M2498 4690 c-52 -16 -98 -52 -126 -98 -22 -38 -27 -59 -27 -112 0
-84 34 -147 101 -186 42 -24 60 -28 190 -35 171 -10 307 -36 465 -89 689 -229
1159 -882 1159 -1610 0 -937 -763 -1700 -1700 -1700 -792 0 -1479 550 -1658
1325 -49 214 -54 498 -12 700 56 269 178 532 341 735 l44 55 5 -226 5 -226 29
-41 c99 -143 338 -109 386 55 8 26 10 190 8 520 l-3 481 -30 44 c-17 23 -51
54 -75 68 l-45 25 -490 0 -490 0 -47 -28 c-69 -40 -103 -102 -103 -187 0 -85
34 -147 103 -187 45 -27 53 -28 219 -33 l173 -5 -37 -45 c-75 -94 -178 -260
-243 -392 -472 -962 -154 -2131 740 -2721 756 -499 1737 -469 2466 75 182 135
365 329 496 525 33 48 92 154 132 234 375 753 272 1656 -265 2311 -356 434
-890 715 -1459 767 -133 13 -213 13 -252 1z"/>
<path d="M2493 4028 c-139 -14 -298 -97 -393 -205 -58 -67 -105 -155 -130
-245 -20 -73 -21 -95 -18 -565 l3 -488 27 -75 c53 -145 158 -266 288 -334 117
-61 162 -71 300 -70 111 0 133 3 200 28 183 68 313 198 378 377 l27 74 3 488
c3 544 3 551 -64 683 -113 225 -362 358 -621 332z"/>
<path d="M1660 2743 c-48 -25 -58 -60 -48 -174 10 -112 28 -184 72 -286 128
-299 416 -524 729 -568 l47 -7 0 -214 0 -214 -130 0 c-174 0 -210 -18 -210
-105 0 -27 8 -44 29 -66 l29 -29 387 0 387 0 29 29 c21 22 29 39 29 66 0 87
-36 105 -210 105 l-130 0 0 214 0 214 48 7 c398 57 743 405 796 805 12 92 9
166 -9 193 -20 31 -72 51 -109 41 -49 -12 -72 -53 -79 -143 -17 -221 -120
-415 -289 -544 -328 -251 -792 -198 -1049 121 -100 124 -153 259 -166 421 -5
72 -10 89 -32 113 -34 36 -76 44 -121 21z"/>
</g>
</svg>
